<?xml version="1.0" encoding="utf-8"?>
<!-- Generator: Adobe Illustrator 23.0.1, SVG Export Plug-In . SVG Version: 6.00 Build 0)  -->
<svg version="1.1" xmlns="http://www.w3.org/2000/svg" xmlns:xlink="http://www.w3.org/1999/xlink" x="0px" y="0px"
	 viewBox="0 0 1317.7 196.8" style="enable-background:new 0 0 1317.7 196.8;" xml:space="preserve">
<style type="text/css">
	.st0{fill:#FFFFFF;}
	.st1{fill:#E03131;stroke:#FFFFFF;stroke-width:4;stroke-miterlimit:10;}
</style>
<g id="Layer_2">
</g>
<g id="Layer_1">
	<g id="Logo">
		<g>
			<g>
				<g>
					<g>
						<g>
							<path class="st0" d="M874.9,51.6L873.2,63H833v33.9H868v11.4H833v35.5h43.1v11.4h-57.4V51.6H874.9z"/>
						</g>
						<g>
							<path class="st0" d="M921.4,112.9l27.6,42.5h-16.7l-19.4-33.6l-19.7,33.6h-15.7l27.7-41.9L880.6,76h16.3l16.6,29.1L930.2,76
								h15.7L921.4,112.9z"/>
						</g>
						<g>
							<path class="st0" d="M1015.3,85c4.7,7.2,7.1,17.4,7.1,30.6c0,12.5-2.7,22.5-8.1,30.1c-5.4,7.6-13.1,11.4-23,11.4
								c-8.8,0-15.8-3-20.8-9v37.7l-13.9,1.7V76h11.9l1.1,10.7c2.9-4,6.4-7.1,10.5-9.3c4.1-2.2,8.4-3.2,13-3.2
								C1003.1,74.2,1010.6,77.8,1015.3,85z M1007.4,115.6c0-20.3-6-30.4-17.9-30.4c-3.9,0-7.5,1.2-10.7,3.5c-3.2,2.3-6,5.3-8.4,8.9
								v38.7c2,3.1,4.5,5.5,7.5,7.2c3,1.7,6.3,2.5,9.9,2.5C1000.9,145.9,1007.4,135.8,1007.4,115.6z"/>
						</g>
						<g>
							<path class="st0" d="M1042.2,152.6c-3-3.1-4.4-7.4-4.4-12.9V44.1l13.9-1.7v97c0,2.2,0.4,3.8,1.1,4.8c0.8,1,2,1.5,3.8,1.5
								c1.9,0,3.6-0.3,5.1-0.9l3.6,9.6c-3.3,1.8-7,2.7-11,2.7C1049.2,157.2,1045.1,155.6,1042.2,152.6z"/>
						</g>
						<g>
							<path class="st0" d="M1130.1,85.3c6.2,7.4,9.3,17.5,9.3,30.3c0,8.2-1.4,15.5-4.2,21.8c-2.8,6.3-6.9,11.1-12.2,14.6
								c-5.3,3.5-11.6,5.2-19,5.2c-11.1,0-19.8-3.7-26.1-11.1c-6.2-7.4-9.3-17.5-9.3-30.3c0-8.2,1.4-15.5,4.2-21.8
								c2.8-6.3,6.9-11.1,12.2-14.6c5.3-3.5,11.7-5.2,19.1-5.2C1115.3,74.2,1123.9,77.9,1130.1,85.3z M1083.5,115.8
								c0,20.2,6.8,30.3,20.5,30.3c13.7,0,20.5-10.1,20.5-30.4c0-20.2-6.8-30.3-20.3-30.3C1090.4,85.3,1083.5,95.5,1083.5,115.8z"/>
						</g>
						<g>
							<path class="st0" d="M1197.1,75.1l-2.6,13.6c-2.4-0.6-4.7-0.9-6.9-0.9c-4.9,0-8.9,1.8-11.9,5.4c-3,3.6-5.4,9.2-7.1,16.9v45.3
								h-13.9V76h11.9l1.4,16.1c2.1-5.9,5-10.4,8.6-13.4c3.6-3,7.8-4.5,12.7-4.5C1192.1,74.2,1194.7,74.5,1197.1,75.1z"/>
						</g>
						<g>
							<path class="st0" d="M1260.5,120.4h-50.6c0.6,8.7,2.8,15.2,6.6,19.3c3.8,4.1,8.7,6.2,14.8,6.2c3.8,0,7.3-0.6,10.5-1.7
								c3.2-1.1,6.6-2.9,10.1-5.3l6,8.3c-8.4,6.6-17.7,9.9-27.7,9.9c-11,0-19.7-3.6-25.8-10.8s-9.3-17.2-9.3-29.8
								c0-8.2,1.3-15.5,4-21.9c2.7-6.4,6.5-11.4,11.4-15s10.8-5.4,17.5-5.4c10.5,0,18.6,3.5,24.2,10.4c5.6,6.9,8.4,16.5,8.4,28.8
								C1260.8,115.7,1260.7,118,1260.5,120.4z M1247.1,109.3c0-7.8-1.6-13.8-4.7-17.9c-3.1-4.1-7.8-6.2-14-6.2
								c-11.3,0-17.5,8.3-18.5,25h37.2V109.3z"/>
						</g>
						<g>
							<path class="st0" d="M1317.7,75.1l-2.6,13.6c-2.4-0.6-4.7-0.9-6.9-0.9c-4.9,0-8.9,1.8-11.9,5.4c-3,3.6-5.4,9.2-7.1,16.9v45.3
								h-13.9V76h11.9l1.4,16.1c2.1-5.9,5-10.4,8.6-13.4c3.6-3,7.8-4.5,12.7-4.5C1312.7,74.2,1315.3,74.5,1317.7,75.1z"/>
						</g>
					</g>
				</g>
				<g>
					<g>
						<g>
							<rect x="756" y="15.3" class="st0" width="14.6" height="181.5"/>
						</g>
					</g>
				</g>
			</g>
			<g>
				<g>
					<g id="Page-1_8_">
						<g id="Wordmark-Horizontal_8_">
							<g id="Logo-wordmark-HORIZ_8_" transform="translate(1.000000, 1.000000)">
								<g id="Wordmark_7_" transform="translate(206.000000, 68.000000)">
									<g id="Fill-10_7_">
										<g>
											<path class="st0" d="M41.8,34.3c0-16.8,5.5-30.4,16.5-40.6c11.1-10.3,25.8-15.4,44-15.4c7.5,0,14.4,1,20.9,3
												c6.5,2,12.2,4.8,17.1,8.6c7.1,5.5,12.6,12.1,16.4,19.8c3.8,7.7,5.7,16.1,5.7,25.1c0,17-5.7,30.9-17.2,41.8
												C133.7,87.4,119,92.8,101,92.8c-17.8,0-32.2-5.4-43-16.1C47.2,66,41.8,51.8,41.8,34.3L41.8,34.3z M102.1-9.5
												c-8.5,0-15.3,4.1-20.4,12.4c-5,8.3-7.5,19.5-7.5,33.7c0,13.3,2.6,24.1,7.8,32.4c5.3,8.2,12,12.4,20.2,12.4
												s14.8-4.2,19.8-12.6c5-8.4,7.5-19.7,7.5-33.9c0-13.5-2.5-24.3-7.6-32.3C117-5.5,110.4-9.5,102.1-9.5L102.1-9.5z
												 M174.6,34.3c0-16.8,5.5-30.4,16.5-40.6c11.1-10.3,25.8-15.4,44-15.4c7.5,0,14.4,1,20.9,3c6.5,2,12.2,4.8,17.1,8.6
												c7.1,5.5,12.6,12.1,16.4,19.8s5.7,16.1,5.7,25.1c0,17-5.7,30.9-17.2,41.8c-11.4,10.8-26.1,16.3-44.2,16.3
												c-17.8,0-32.2-5.4-43-16.1C180,66,174.6,51.8,174.6,34.3L174.6,34.3z M235-9.5c-8.5,0-15.3,4.1-20.4,12.4
												c-5,8.3-7.5,19.5-7.5,33.7c0,13.3,2.6,24.1,7.8,32.4c5.3,8.2,12,12.4,20.2,12.4s14.8-4.2,19.8-12.6
												c5-8.4,7.5-19.7,7.5-33.9c0-13.5-2.5-24.3-7.6-32.3C249.9-5.5,243.2-9.5,235-9.5L235-9.5z M304.8,90v-9.2l10-1l3.1-3.1
												V-6.9l-2.2-2.4l-10.9-1.2v-8.9h46.2v4.4l46.9,72.6V-6.2L395-9.3l-10.7-1.2v-8.9h41.5v8.9L416-9.3l-3.1,3.1V90h-26
												L332.7,6.8v70l2.3,3.1l10.9,1V90C346,90,304.8,90,304.8,90z M432.8,90v-9.5l11.8-0.6l2.6-3.1V-6.9l-2.6-2.4L432.8-10
												v-9.5h58.4v9.5l-12.1,0.6l-2.6,2.4v83.8l2.6,3.1l12.1,0.6V90L432.8,90L432.8,90z"/>
										</g>
									</g>
								</g>
							</g>
						</g>
					</g>
				</g>
				<path class="st0" d="M98.4,0C44.1,0,0,44.1,0,98.4s44.1,98.4,98.4,98.4c54.4,0,98.4-44.1,98.4-98.4S152.8,0,98.4,0z
					 M165.2,104.8c-2.7,6.1-6.1,11.2-14.1,14.4c-5.9,2.3-8,2.5-9.2,2.8c-1.3,0.4-2.4,1-3.2,1.1c-2,0.1-10.3-1.5-12.1-2.1
					c-1.9-0.6-1.1-1.5-2.2-1.7c-1.1-0.2-2.4,0.1-3.5-0.4c-1.2-0.6-2.9-1.6-4.1-3.1c-1-1.2-4.3-5.1-6.7-6.3c-0.5,2.5,0.5,5.2,1.5,6.8
					c1.3,2.1,2.5,3.9,5.8,6.3c5.7,4.1,13.3,10.3,17.3,15c3.3,3.9,6.5,9.2,4.8,16.9c-1.4,6.3-8.5,10.8-12.6,12.4
					c-3.3,1.3-12.8,1.8-14.3,1.8c-1.6,0-2.8-1.5-3.8-1.8c-1-0.3-4.6,0.9-6.4,0.2c-1.4-0.6-3.3-2.5-4.8-4.1c-0.8-0.8-1.7-1.3-2.2-1.8
					c-0.4-0.4-0.6-1.3-0.9-2c-0.7-1.6-1.3-3.5-1.6-5.1c-0.3-1.4-0.5-2.9-0.5-4.1c0-0.8,0.4-1.6,0.5-2.7c0.1-1-0.2-2.8,0.1-3.6
					c0.7-2.1,1.7-3.5,3.6-5.2c2.2-2.1,4.7-2.3,7.1-2.2c2.3,0.1,4-0.4,5-0.4c1.7,0,2.9,0.8,3.5,1.3c1.2,1,1.5,2.1,1.3,3
					c-0.2,0.9-1.2,1.5-2.4,1.4c-1.4-0.2-3.7-1-6,0.7c-2.1,1.6-1.2,7.7,1.3,10.9c2.5,3.3,6.6,5,10.9,5.1c4,0.1,6.9-2.1,8.2-3.8
					c1.5-2,2.7-7.1,0-10.9c-2.5-3.5-8.4-7.9-10.9-9.5s-8-4.4-12-9.1c-1.6-1.8-3.7-4.8-5.9-8.1c-1.6,1.3-3.1,4-3.9,5
					c-0.9,1.1-1.9,2.1-2.8,2.9c-1.7,1.4-3.9,2.5-5.6,3.3c-1.6,0.9-3.2,2.2-5.3,3.2c-2.2,1.1-3.3,0.9-6.5,2.1
					c-3.6,1.3-6.3,3.9-6.6,7.6c-0.4,4.3,4.3,7.3,5.8,7.9c0.9,0.4,6.1,0.2,7.3-0.1c0.5-0.1,1.1-0.2,1.7-0.1c1.4,0.1,2.6,3.9,3.6,4.4
					c0.6,0.3,1.1,0.1,2,0.4c0.7,0.3,1.4,1.2,1.6,1.4c0.9,0.8,0.3,1.6,1.4,3.2c1.3,1.9,0.9,5.1,0.9,6.5c0,1.4-1,4-1.2,4.8
					c-0.2,0.8-0.3,2.2-0.5,3.1c-0.2,0.9-2.1,2.3-2.7,2.8c-0.6,0.4-1.3,0.4-1.7,0.5c-0.5,0.1-1.7,2.6-4.5,3.5c-3.2,1.1-4.5,1.4-8,1.4
					c-3.2,0-7.4-3.5-7-3.8c0.2-0.1,4.6-0.5,7.8-1.9c1.9-0.8,4.6-3.1,5-7.3c0.4-4.2-3.7-6.2-6-7.4c-3.4-1.7-6.4-3.5-9.9-5.5
					c-4.2-2.4-6.7-5.7-8.1-8.8c-1.5-3.4-1.8-6.2-0.4-11.2s5.3-7.9,9.7-11c4.8-3.3,11.7-7.1,16.5-9.7c3.4-1.8,5.5-3.7,5.9-7
					c0.1-0.5,0-2.4-0.1-3c-0.4,0.4-2.6,2.8-3.5,3.6c-3.3,3.4-8.8,7.4-16.4,8.6c-2,0.3-1.5,1.3-3.6,1.5c-0.8,0.1-3.3,0-4.5,0
					c-3.4-0.1-5.6-1.1-8.8-2.2c-3.2-1.1-7.4-2.5-12.7-7.3c-5.1-4.7-6.7-9-7.6-15.4c-0.9-6.4,0.9-10.9,3-14.7c3-5.3,7.2-8.5,9.6-11.1
					c2.4-2.6,4.6-5.6,6.3-5.7c1.7-0.1,2.8,1.9,4.1,2.1c0.9,0.1,1.8-0.6,3-0.8c0.8-0.2,1.7,0,2.2,0.1c1,0.3,1.4,2.3,2.1,3.3
					c0.9,1.1,3.1,0.3,3.9,1c0.3,0.3,1,0.7,1.2,1.3c0.3,0.8,0.4,1.7,0.5,2.4c0.2,1.2,3,3.5,3.4,4.6c0.4,1.1-1.6,9.7-3.4,12
					c-2.1,2.6-5.7,4.6-6.1,4.7C57.4,92.3,57,92,57,91.5s1.8-4.6,1.7-7.2c-0.1-4.4-2.9-6.9-4.9-7.9c-3.6-1.9-6.9-1.5-11.3,3.7
					c-3.7,4.3-5.7,10.9-1.8,16.4c2,2.9,4.7,7.8,14.8,7.7c11.6-0.1,18.7-3.4,21.8-9.5c2.8-5.7,1.3-11.9-5.6-18.7S60.9,60.2,60.9,50.8
					c0-19.6,16.1-35.5,36-35.5s36.6,15.9,36.6,35.5c0,9.2-4.2,18.1-9.8,23.9c-5.6,5.8-6.7,13.2-4.3,19.5
					c5.2,13.7,18.3,14.9,23.5,13.4c5.2-1.5,8.2-5.2,9.4-8c1.1-2.8,1.5-7.4,0.3-9.2c-1.2-1.8-2-2.5-2.3-3.4c-0.3-0.9,0.2-2.3-0.3-3.1
					c-0.8-1.3-3.8-3.2-4.8-4.4c-1.1-1.2-2.5-2.7-3.6-5.2c-1-2.2-1.3-2.9-2-4.1c-0.8-1.2-5.3-5.3-5.2-7.9c0.1-1.8,1.1-1,1.6-2.8
					c0.5-1.7-0.1-5.3,0.2-6.4c0.4-1.5,2.3-1.4,3-2.8c0.6-1.4,0.1-3.4,0.6-4.4c1-1.9,4.6-4.9,5.1-5.9c0.5-1.1,0.2-1.2,0.6-1.7
					c0.2-0.3,1.1-1.4,1.7-1.5c0.5-0.1,4,0.1,4.8-0.2c0.7-0.2,1.7-1.4,3.5-1.5c0.1,0,0.2,0,0.4,0c2.1,0.1,2.9,0.4,3.7,0.8
					c0.6,0.3,3.2,1.8,2.4,3.3c-1.1,1.8-8.7,4.9-10.5,14.9c-1.8,10,2.2,15,5.4,19.9c3.2,4.9,6.3,9.6,7.9,13.1
					C166.1,90.9,167.9,98.7,165.2,104.8z"/>
				<path class="st0" d="M91.5,36.1c-9.7,0-17.7,7.9-17.7,17.7c0,9.8,7.9,17.7,17.7,17.7c9.8,0,17.7-7.9,17.7-17.7
					S101.3,36.1,91.5,36.1z M89.2,60.4c-2.2,0-4-1.8-4-4s1.8-4,4-4s4,1.8,4,4S91.5,60.4,89.2,60.4z"/>
			</g>
		</g>
	</g>
</g>
<g id="Layer_3">
	<rect x="80.6" y="91.2" class="st1" width="221.1" height="97.1"/>
	<g>
		<path class="st0" d="M142.6,142.2c2.3,2,3.5,5.1,3.5,9.2c0,5.8-2.1,9.9-6.2,12.4c-4.2,2.5-9.9,3.7-17.4,3.7h-17.3v-55.4h15.1
			c7.6,0,13.4,1.1,17.4,3.4s6,5.8,6,10.8c0,3.3-1,5.9-2.9,7.9c-1.9,2-4.4,3.3-7.2,4C137.3,138.9,140.3,140.2,142.6,142.2z
			 M117,120.6v14h5.8c2.9,0,5.1-0.6,6.6-1.8c1.5-1.2,2.3-3,2.3-5.5c0-2.5-0.8-4.2-2.5-5.2c-1.7-1-4.2-1.5-7.8-1.5H117z M131,157.1
			c1.9-1.1,2.9-3.2,2.9-6.2c0-5.5-3.4-8.3-10.2-8.3H117v16.2h5.6C126.3,158.8,129.1,158.2,131,157.1z"/>
		<path class="st0" d="M187.5,112.1l-1.3,8.6h-20v14.4h17.4v8.5h-17.4v15.3h21.4v8.6h-33.2v-55.4H187.5z"/>
		<path class="st0" d="M233.4,112.1l-1.3,9.2h-14v46.2h-11.8v-46.2h-14.7v-9.2H233.4z"/>
		<path class="st0" d="M264.7,167.5l-3.1-12.4h-17.4l-3.1,12.4h-12.2l17-55.4h14.3l17,55.4H264.7z M246.4,146.4h12.9l-6.5-25.5
			L246.4,146.4z"/>
	</g>
</g>
</svg>
