<svg xmlns="http://www.w3.org/2000/svg" viewBox="0 0 1682.3 196.8"><path d="M874.9,51.6,873.2,63H833V96.9h35v11.4H833v35.5h43.1v11.4H818.7V51.6Z" style="fill:#fff"/><path d="M921.4,112.9,949,155.4H932.3l-19.4-33.6-19.7,33.6H877.5l27.7-41.9L880.6,76h16.3l16.6,29.1L930.2,76h15.7Z" style="fill:#fff"/><path d="M1015.3,85c4.7,7.2,7.1,17.4,7.1,30.6,0,12.5-2.7,22.5-8.1,30.1s-13.1,11.4-23,11.4c-8.8,0-15.8-3-20.8-9v37.7l-13.9,1.7V76h11.9l1.1,10.7a31,31,0,0,1,10.5-9.3,26.91,26.91,0,0,1,13-3.2C1003.1,74.2,1010.6,77.8,1015.3,85Zm-7.9,30.6c0-20.3-6-30.4-17.9-30.4a18,18,0,0,0-10.7,3.5,34.12,34.12,0,0,0-8.4,8.9v38.7a21.48,21.48,0,0,0,7.5,7.2,19.69,19.69,0,0,0,9.9,2.5C1000.9,145.9,1007.4,135.8,1007.4,115.6Z" style="fill:#fff"/><path d="M1042.2,152.6c-3-3.1-4.4-7.4-4.4-12.9V44.1l13.9-1.7v97a8.49,8.49,0,0,0,1.1,4.8,4.49,4.49,0,0,0,3.8,1.5,13.64,13.64,0,0,0,5.1-.9l3.6,9.6a22.68,22.68,0,0,1-11,2.7C1049.2,157.2,1045.1,155.6,1042.2,152.6Z" style="fill:#fff"/><path d="M1130.1,85.3q9.3,11.1,9.3,30.3a53.32,53.32,0,0,1-4.2,21.8A33.17,33.17,0,0,1,1123,152c-5.3,3.5-11.6,5.2-19,5.2q-16.65,0-26.1-11.1t-9.3-30.3a53.32,53.32,0,0,1,4.2-21.8A33.17,33.17,0,0,1,1085,79.4c5.3-3.5,11.7-5.2,19.1-5.2C1115.3,74.2,1123.9,77.9,1130.1,85.3Zm-46.6,30.5c0,20.2,6.8,30.3,20.5,30.3s20.5-10.1,20.5-30.4-6.8-30.3-20.3-30.3C1090.4,85.3,1083.5,95.5,1083.5,115.8Z" style="fill:#fff"/><path d="M1197.1,75.1l-2.6,13.6a28.44,28.44,0,0,0-6.9-.9,14.77,14.77,0,0,0-11.9,5.4c-3,3.6-5.4,9.2-7.1,16.9v45.3h-13.9V76h11.9l1.4,16.1c2.1-5.9,5-10.4,8.6-13.4a19.16,19.16,0,0,1,12.7-4.5A32.1,32.1,0,0,1,1197.1,75.1Z" style="fill:#fff"/><path d="M1260.5,120.4h-50.6c.6,8.7,2.8,15.2,6.6,19.3a19.24,19.24,0,0,0,14.8,6.2,32.11,32.11,0,0,0,10.5-1.7,42.91,42.91,0,0,0,10.1-5.3l6,8.3a44,44,0,0,1-27.7,9.9c-11,0-19.7-3.6-25.8-10.8s-9.3-17.2-9.3-29.8a55.9,55.9,0,0,1,4-21.9,34.94,34.94,0,0,1,11.4-15,28.88,28.88,0,0,1,17.5-5.4c10.5,0,18.6,3.5,24.2,10.4s8.4,16.5,8.4,28.8A41.06,41.06,0,0,1,1260.5,120.4Zm-13.4-11.1c0-7.8-1.6-13.8-4.7-17.9s-7.8-6.2-14-6.2c-11.3,0-17.5,8.3-18.5,25h37.2Z" style="fill:#fff"/><path d="M1317.7,75.1l-2.6,13.6a28.44,28.44,0,0,0-6.9-.9,14.77,14.77,0,0,0-11.9,5.4c-3,3.6-5.4,9.2-7.1,16.9v45.3h-13.9V76h11.9l1.4,16.1c2.1-5.9,5-10.4,8.6-13.4a19.16,19.16,0,0,1,12.7-4.5A32.1,32.1,0,0,1,1317.7,75.1Z" style="fill:#fff"/><rect x="756" y="15.3" width="14.6" height="181.5" style="fill:#fff"/><path d="M248.8,103.3c0-16.8,5.5-30.4,16.5-40.6s25.8-15.4,44-15.4a70.39,70.39,0,0,1,20.9,3,52.89,52.89,0,0,1,17.1,8.6,55.42,55.42,0,0,1,22.1,44.9c0,17-5.7,30.9-17.2,41.8S326,161.8,308,161.8c-17.8,0-32.2-5.4-43-16.1s-16.2-24.9-16.2-42.4Zm60.3-43.8c-8.5,0-15.3,4.1-20.4,12.4s-7.5,19.5-7.5,33.7q0,20,7.8,32.4c5.3,8.2,12,12.4,20.2,12.4s14.8-4.2,19.8-12.6,7.5-19.7,7.5-33.9c0-13.5-2.5-24.3-7.6-32.3-4.9-8.1-11.5-12.1-19.8-12.1Zm72.5,43.8c0-16.8,5.5-30.4,16.5-40.6s25.8-15.4,44-15.4a70.39,70.39,0,0,1,20.9,3,52.89,52.89,0,0,1,17.1,8.6,55.42,55.42,0,0,1,22.1,44.9c0,17-5.7,30.9-17.2,41.8s-26.1,16.3-44.2,16.3c-17.8,0-32.2-5.4-43-16.1s-16.2-25-16.2-42.5ZM442,59.5c-8.5,0-15.3,4.1-20.4,12.4s-7.5,19.5-7.5,33.7q0,20,7.8,32.4c5.3,8.2,12,12.4,20.2,12.4s14.8-4.2,19.8-12.6,7.5-19.7,7.5-33.9c0-13.5-2.5-24.3-7.6-32.3-4.9-8.1-11.6-12.1-19.8-12.1ZM511.8,159v-9.2l10-1,3.1-3.1V62.1l-2.2-2.4-10.9-1.2V49.6H558V54l46.9,72.6V62.8L602,59.7l-10.7-1.2V49.6h41.5v8.9L623,59.7l-3.1,3.1V159h-26L539.7,75.8v70l2.3,3.1,10.9,1V159Zm128,0v-9.5l11.8-.6,2.6-3.1V62.1l-2.6-2.4L639.8,59V49.5h58.4V59l-12.1.6L683.5,62v83.8l2.6,3.1,12.1.6V159Z" style="fill:#fff"/><path d="M98.4,0a98.4,98.4,0,1,0,98.4,98.4A98.46,98.46,0,0,0,98.4,0Zm66.8,104.8c-2.7,6.1-6.1,11.2-14.1,14.4a47.84,47.84,0,0,1-9.2,2.8,31,31,0,0,1-3.2,1.1c-2,.1-10.3-1.5-12.1-2.1s-1.1-1.5-2.2-1.7-2.4.1-3.5-.4a12.33,12.33,0,0,1-4.1-3.1c-1-1.2-4.3-5.1-6.7-6.3a10,10,0,0,0,1.5,6.8,19.15,19.15,0,0,0,5.8,6.3c5.7,4.1,13.3,10.3,17.3,15,3.3,3.9,6.5,9.2,4.8,16.9-1.4,6.3-8.5,10.8-12.6,12.4-3.3,1.3-12.8,1.8-14.3,1.8s-2.8-1.5-3.8-1.8-4.6.9-6.4.2c-1.4-.6-3.3-2.5-4.8-4.1-.8-.8-1.7-1.3-2.2-1.8a7.48,7.48,0,0,1-.9-2,25,25,0,0,1-1.6-5.1,20.8,20.8,0,0,1-.5-4.1c0-.8.4-1.6.5-2.7s-.2-2.8.1-3.6a11.19,11.19,0,0,1,3.6-5.2c2.2-2.1,4.7-2.3,7.1-2.2a39.75,39.75,0,0,0,5-.4,5.46,5.46,0,0,1,3.5,1.3,3,3,0,0,1,1.3,3,2.12,2.12,0,0,1-2.4,1.4c-1.4-.2-3.7-1-6,.7-2.1,1.6-1.2,7.7,1.3,10.9a13.87,13.87,0,0,0,10.9,5.1,10.18,10.18,0,0,0,8.2-3.8c1.5-2,2.7-7.1,0-10.9-2.5-3.5-8.4-7.9-10.9-9.5s-8-4.4-12-9.1a83,83,0,0,1-5.9-8.1c-1.6,1.3-3.1,4-3.9,5a26,26,0,0,1-2.8,2.9,27.31,27.31,0,0,1-5.6,3.3c-1.6.9-3.2,2.2-5.3,3.2s-3.3.9-6.5,2.1c-3.6,1.3-6.3,3.9-6.6,7.6-.4,4.3,4.3,7.3,5.8,7.9.9.4,6.1.2,7.3-.1a4.73,4.73,0,0,1,1.7-.1c1.4.1,2.6,3.9,3.6,4.4.6.3,1.1.1,2,.4a5.84,5.84,0,0,1,1.6,1.4c.9.8.3,1.6,1.4,3.2,1.3,1.9.9,5.1.9,6.5s-1,4-1.2,4.8-.3,2.2-.5,3.1-2.1,2.3-2.7,2.8a4.51,4.51,0,0,1-1.7.5c-.5.1-1.7,2.6-4.5,3.5a19.58,19.58,0,0,1-8,1.4c-3.2,0-7.4-3.5-7-3.8a35.45,35.45,0,0,0,7.8-1.9,8.66,8.66,0,0,0,5-7.3c.4-4.2-3.7-6.2-6-7.4-3.4-1.7-6.4-3.5-9.9-5.5a19.16,19.16,0,0,1-8.1-8.8c-1.5-3.4-1.8-6.2-.4-11.2s5.3-7.9,9.7-11c4.8-3.3,11.7-7.1,16.5-9.7,3.4-1.8,5.5-3.7,5.9-7a15.31,15.31,0,0,0-.1-3c-.4.4-2.6,2.8-3.5,3.6a29.36,29.36,0,0,1-16.4,8.6c-2,.3-1.5,1.3-3.6,1.5-.8.1-3.3,0-4.5,0-3.4-.1-5.6-1.1-8.8-2.2a32.36,32.36,0,0,1-12.7-7.3c-5.1-4.7-6.7-9-7.6-15.4a22.14,22.14,0,0,1,3-14.7c3-5.3,7.2-8.5,9.6-11.1s4.6-5.6,6.3-5.7,2.8,1.9,4.1,2.1c.9.1,1.8-.6,3-.8a5.17,5.17,0,0,1,2.2.1c1,.3,1.4,2.3,2.1,3.3.9,1.1,3.1.3,3.9,1,.3.3,1,.7,1.2,1.3a11.43,11.43,0,0,1,.5,2.4c.2,1.2,3,3.5,3.4,4.6s-1.6,9.7-3.4,12a19.53,19.53,0,0,1-6.1,4.7c-.4.2-.8-.1-.8-.6s1.8-4.6,1.7-7.2a8.93,8.93,0,0,0-4.9-7.9c-3.6-1.9-6.9-1.5-11.3,3.7-3.7,4.3-5.7,10.9-1.8,16.4,2,2.9,4.7,7.8,14.8,7.7,11.6-.1,18.7-3.4,21.8-9.5C80.1,89,78.6,82.8,71.7,76A35.39,35.39,0,0,1,60.9,50.8c0-19.6,16.1-35.5,36-35.5s36.6,15.9,36.6,35.5a35.56,35.56,0,0,1-9.8,23.9,18.24,18.24,0,0,0-4.3,19.5c5.2,13.7,18.3,14.9,23.5,13.4a14.62,14.62,0,0,0,9.4-8c1.1-2.8,1.5-7.4.3-9.2s-2-2.5-2.3-3.4.2-2.3-.3-3.1c-.8-1.3-3.8-3.2-4.8-4.4a17.87,17.87,0,0,1-3.6-5.2,40,40,0,0,0-2-4.1c-.8-1.2-5.3-5.3-5.2-7.9.1-1.8,1.1-1,1.6-2.8s-.1-5.3.2-6.4c.4-1.5,2.3-1.4,3-2.8s.1-3.4.6-4.4c1-1.9,4.6-4.9,5.1-5.9s.2-1.2.6-1.7c.2-.3,1.1-1.4,1.7-1.5s4,.1,4.8-.2,1.7-1.4,3.5-1.5h.4a8,8,0,0,1,3.7.8c.6.3,3.2,1.8,2.4,3.3-1.1,1.8-8.7,4.9-10.5,14.9s2.2,15,5.4,19.9,6.3,9.6,7.9,13.1C166.1,90.9,167.9,98.7,165.2,104.8Z" style="fill:#fff"/><path d="M91.5,36.1a17.7,17.7,0,1,0,17.7,17.7A17.73,17.73,0,0,0,91.5,36.1ZM89.2,60.4a4,4,0,1,1,4-4A4,4,0,0,1,89.2,60.4Z" style="fill:#fff"/><path d="M1387,38.2h281.3a13.91,13.91,0,0,1,14,14V160a13.91,13.91,0,0,1-14,14H1387a13.91,13.91,0,0,1-14-14V52.1A14,14,0,0,1,1387,38.2Z" style="fill:#e03131"/><path d="M1459.7,109.4c3.2,2.8,4.9,7.2,4.9,12.8,0,8-3,13.8-8.6,17.4-5.9,3.5-13.8,5.2-24.3,5.2h-24.1V67.4h21.2c10.6,0,18.8,1.6,24.3,4.8s8.3,8,8.3,15.1c0,4.7-1.4,8.2-4.1,11a20.36,20.36,0,0,1-10,5.6A25.27,25.27,0,0,1,1459.7,109.4Zm-35.9-30.2V98.8h8c4.1,0,7.2-.8,9.2-2.5s3.2-4.2,3.2-7.6-1.1-5.9-3.5-7.3-5.9-2.1-10.9-2.1C1430.1,79.2,1423.8,79.2,1423.8,79.2Zm19.7,51c2.7-1.6,4.1-4.5,4.1-8.6,0-7.6-4.8-11.6-14.3-11.6H1424v22.7h7.8C1437,132.6,1440.8,131.7,1443.5,130.2Z" style="fill:#fff"/><path d="M1522.5,67.4l-1.8,12h-27.9v20h24.3v11.9h-24.3v21.5h29.9v12h-46.4V67.4Z" style="fill:#fff"/><path d="M1586.7,67.4l-1.8,12.8h-19.6v64.6h-16.5V80.2h-20.6V67.4Z" style="fill:#fff"/><path d="M1630.5,144.7l-4.4-17.4h-24.3l-4.4,17.4h-17.1L1604,67.2h20l23.7,77.5Zm-25.6-29.5H1623l-9-35.7Z" style="fill:#fff"/></svg>
