<svg xmlns="http://www.w3.org/2000/svg" viewBox="0 0 442.75 447.78"><title>Asset 1</title><path d="M281.32,299.52c-.67-23.84,14-24.46,28.66-37.31,19.15-16.81,31.3-40,31-65.77-1.15-45.6-35-86.94-88.36-81.54-38.24,3.88-66.8,32.12-72.1,71.21-6.79,50.07,53.73,86.65,6,120.15" style="fill:#1288ca"/><path d="M246.31,189.3c4.63,1.6-.43-6.81,14.79-22.21,4.75-4.81,11.38-8.94,21.25-11.48,3.39-.88,13.77-1.2,18.13.22,4.62,1.5,11.19,6.59,11.5,3.9,0,0-3.09-4.94-5-6.25a61.54,61.54,0,0,0-8-3.85c-6.54-2.81-25.41-.7-30.68,3C244.48,169.24,246.31,189.3,246.31,189.3Z" style="fill:#010101;opacity:0.05"/><path d="M246.31,189.3c1.9-.86-3.63-9.52,11.48-27.69,6.11-7.35,17.44-11.73,28.22-12.4,14.09-.87,26,10.52,26,10.52-2.62-8.31-16.82-13.34-25.38-13.75a35.6,35.6,0,0,0-21.12,6C241.52,168.87,246.31,189.3,246.31,189.3Z" style="fill:#2692cb"/><path d="M249.57,189.21c4.46.91-.67-6.29,14.34-18.75,4.68-3.88,8.46-6.7,17.73-9.32a38,38,0,0,1,19.24-.29c4.21.87,9.47,3.82,9.9,1.38a19.54,19.54,0,0,0-3.93-3.25,30,30,0,0,0-6.12-2.6c-5.91-1.74-23.56.91-28.66,4C249,174.22,249.57,189.21,249.57,189.21Z" style="fill:#010101;opacity:0.05"/><path d="M249.57,189.21c1.81-.76-2.83-7,12.23-21.49,6.09-5.87,16.87-9.81,26.92-10.92a32.6,32.6,0,0,1,22.06,5.43c-3.42-6.14-13.4-8.07-21.33-7.9a43.74,43.74,0,0,0-20,5.71C246.6,173.56,249.57,189.21,249.57,189.21Z" style="fill:#168ccb"/><path d="M254.05,187.38c1.58-.64-2.27-5.37,11.13-17.13,5.41-4.76,14.83-8.12,23.54-9.25,11.39-1.48,18.92,3.67,18.92,3.67a24.85,24.85,0,0,0-16.89-4.91c-6.1.31-13.61,2.15-18.19,4.8C251.56,176.71,254.05,187.38,254.05,187.38Z" style="fill:#1288ca"/><path d="M164.93,286.43c-5.27,2.33-34.88,16.66-45.83,20.93-25.55,7.35-48.5,9.07-67.72,3.36C37,306.45,29.33,294,28.62,289.86c-1.43-8.25-1.08-12.88,1.92-16.57a17,17,0,0,1,8.5-5.68,11.15,11.15,0,0,1,7.69.68,7.12,7.12,0,0,1,2,2c1.44,4.23,5.2,4.06,6.19-2.24.34-2.12.59-4.29-.62-6s-3-5.09-6.15-6.22c-.68-.24-5.23-1.79-7.32-3.29a19.64,19.64,0,0,0-7.25-2.74c-5.66-1.33-7,.86-12.43,2.39a9.74,9.74,0,0,0-3.9,2.63,84,84,0,0,1-7.53,6.55,19.1,19.1,0,0,0-5.36,6.08c-1.18,2.28-2.37,2.62-3.3,5-1.09,2.8,1.7,6.3,0,9.38-2.74,4.88.82,7.09,1.21,10.11.49,3.67-3.41,8.89.12,10,3.08.91,4.69,2.33,5.36,4.63.75,2.51,5.59,7.58,7.84,10.05a59,59,0,0,0,9.87,8.62c48.47,33.09,107.39,15.34,118,11.12,9.28-3.7,22-9.06,35.76-13l49.19-11.37S239.27,253.64,164.93,286.43Z" style="fill:#1288ca"/><path d="M27.3,249.41c10.62-1.74,12.23,3.84,17.81,5.26,6.78,1.72,8.08,5.76,9.2,7.36s-5-1.79-7.78-2.5c-1.54-.4-6-3.56-12.55-4.62-4.64-.74-8.1,1.48-11.62,1.86-1.82.2-7.37,1.1-3.75-2.71C21,251.51,27.3,249.41,27.3,249.41Z" style="fill:#2692cb"/><path d="M198,297.27c-12,3.54-33.83-1.31-40.91-3.13-11.84-3.05-26-11.07-39.87-22.7-11.34-9.49-19.28-25.63-18.52-50,.54-17.33,14.46-32.84,24.76-38.19,10.54-5.47,11.13-4,15.74-6.31,9.34-4.59,10-13.28,7.1-16.29-2.07-2.14-2-16.66-1-20.38a34.91,34.91,0,0,1,2.07-6.11,6.75,6.75,0,0,0,.09-6c-1.88-4.24,2.69-5.84,6-9.94,2.09-2.58,3.39-5.8,5.21-8.65,1.68-2.66,2-3.66,5.82-5.35,2.83-1.22,6.17-1.66,8.87-3.2,4.28-2.44,5.65-3.64,9.37-.57,1.39,1.14,3.55.13,5.28.19,7.37.23,8.2.91,13.32,5.82,2,1.88,6.63,4.15,9.27,5.08,7.86,2.78,13.2-9.35,13.74-.11.43,7.23-8.54,12.22-13.57,13-6.75,1-8.43-1.49-14.52-3.9-7.82-3.08-15.42-7.51-20.84.49-2.35,3.48-2.43,7.68-2.43,12.14,0,6.74-.68,11.11,1.49,21.45,1.88,8.94-.81,23-8,31.39-7.73,9.07-14,8.22-26.09,21.8-13.83,15.47,3.28,40.94,20.54,47.76,13.49,5.33,26.11,3.26,37.22-3.49s28.22-21.26,36.15-36.08c11.34-21.2,17.16,25.54,5.24,50.22S210.21,293.66,198,297.27Z" style="fill:#1288ca"/><path d="M220.67,294.23h0c3.26-2,3.88-3.82.37-3.31-66.44,9.62-114.3-32-114.3-32,3.17,9,17,17.72,23,22,10.6,7.54,8.49,5.27,22.1,11.67l11.68,3s4.13,13-25.1,27.43c-18.24,9-54.68,19.5-101,.61-22.61-9.22-35.22-31.77-35.22-31.77.49,3.67-3.41,8.89.12,10,3.08.91,4.69,2.33,5.36,4.63.75,2.51,5.59,7.58,7.84,10.05a58.11,58.11,0,0,0,9.87,8.62c50.64,34.26,107,14.23,118,11.12,10-2.85,22.13-8.6,35.76-13l46-11.57Z" style="fill:#010101;opacity:0.1"/><path d="M135.7,217.22s1.85-6.35,4.64-9.47c12.14-13.58,18.19-11.85,26.09-21.8,0,0-1.9-1.29-13.52,5.38S133.1,207.6,135.7,217.22Z" style="fill:#010101;opacity:0.1"/><path d="M147.38,128.13a6.75,6.75,0,0,1-.09,6,34.91,34.91,0,0,0-2.07,6.11c-.92,3.72-1,18.24,1,20.38s1.67,6.32-.85,11.16c0,0,6.55-5.64,5.82-12.34s-2.44-12.44-1.07-19.14C151.13,135.6,146.44,126,147.38,128.13Z" style="fill:#010101;opacity:0.1"/><path d="M99.73,217.3c2.56-14.79,15.6-27.91,24.21-33.29,4-2.49,6.4-2.9,12.13-5.83,0,0-23.79,16.19-27.33,28.06C105.37,217.53,99.37,219.41,99.73,217.3Z" style="fill:#2692cb"/><path d="M172.83,138.26s-.1,10.59-1.44,15.68c-1.42,5.43.63,9.76,2.38,10.25a28.08,28.08,0,0,0,1.76-10.89A132,132,0,0,0,172.83,138.26Z" style="fill:#2692cb"/><path d="M166.22,105.86c-3,.66,3.37-2.81,6.06-4.35,4.28-2.44,6.68-4.16,10.4-1.09,1.39,1.14,2.85.11,4.57.17,7.37.23,8.91.93,14,5.84,2,1.88,6.63,4.15,9.27,5.08,7.86,2.78,13.2-9.35,13.74-.11.22,3.62-2.63,7.38-7.14,8.63-3.48,1-14.71-1.57-21.69-9C190.32,105.64,178.63,103.15,166.22,105.86Z" style="fill:#2692cb"/><path d="M371.14,387.65c32.26-28.5,26.76-51.67,19.66-86.38-3.78-18.51,16.19-30.45,32.05-27.7,5.18.91,4.65,15.63,10.08,12.79,7.19-3.76,8.5-13.31,5.7-20.13-8.47-20.65-58.65-16.68-67.6-2.34-5.06,8.12-11.7,16.54-8.26,32.42,1.78,8.23.51,17.57,1.27,27.53,10.47,38.13-39.39,56.38-61,28.67-14.6-18.7-24.88-52-20.89-73.3,6.24-33.35-15.57-5.87-30.55,16.6-7.29,14.59-6.39,13.45.11,37,5.81,21,20.6,46.64,39.24,58.2,20.59,12.77,51.78,16.72,80.23-3.35C386.61,374.58,368.63,389.87,371.14,387.65Z" style="fill:#1288ca"/><path d="M365.19,329.65c1.3,11.88-5.3,30.43-26.3,35.33-16,3.73-34-7.67-34.95-5.67-5.71,12.17,32,24.17,53,7.17C368.91,356.76,365.19,329.65,365.19,329.65Z" style="fill:#2692cb"/><path d="M436.88,260c-9.08-8.92-24.48-12.69-32.2-11.4a8.38,8.38,0,0,1-5.35-.52c-4.66-2.38-10.2,1.41-14,4.81-2.41,2.13-6.1,1.3-8.72,3.14-3.58,2.53-5.41,9.5-8.5,12.54,0,0,4.66-2.78,15.32-9,4.51-2.65,9.69-3.76,20.49-5.74S439.81,262.86,436.88,260Z" style="fill:#2692cb"/><path d="M440.48,289.18c6.15-18.2-3.6-29.2-3.6-29.2L426,254.14l3.31,21.08c4.89,7.71-14.91,25.53-12.1,28.09s16.57-1.36,23.28-14.13" style="fill:#1288ca"/><path d="M440,290.13c-5,10.35-18.78,16.35-23.27,12.92,0,0,11.47.24,20.69-15.7,4.74-8.18,5-12.91,5-12.91S444.15,281.38,440,290.13Z" style="fill:#010101;opacity:0.1"/><path d="M394.56,318.81c-2.5-10.1-6.1-19.45-2.05-31.18-16.14,17.52-1.89,27.43-2.95,47.38-.95,17.81-6.56,42.29-20.22,48.47-61,27.62-103.78-19.7-119.78-58.55,11.5,44.22,41.38,84.61,91.73,75.06C379.06,392.81,404.49,358.78,394.56,318.81Z" style="fill:#010101;opacity:0.1"/><path d="M197.85,250s4.21,7.94,19.08,12.3c0,0-16.53-.69-24.05-7.23Z" style="fill:#010101;opacity:0.1"/><path d="M208.21,300c-1.86,9.15-12,35.37-20.53,55.28-11.45,26.82-39.08,58.84-73.71,62.74a59.54,59.54,0,0,1-8.12.17c-8.1-.38-16-1.51-23.57-5.62a56.3,56.3,0,0,1-8.74-5.89c-4.46-5.87-10.23-9.92-12.87-18.33-.4-.65-.63-5.25-3.87-8.49-.91-.9-4.82-1.16-5.79-2.11s-1-4.36-2-5.29c-1.71-1.62-4.4-.71-5.86-2-2.38-2.07-4.21-3.46-4.75-3.42-5-.51-13.45-8.52-21.71,1.57a8.34,8.34,0,0,0-.66,9.64c4.35,7,2.32-1.45,4.77-3.76,2.15-2,10.4.78,16.6,12.88a129.27,129.27,0,0,1,7.15,17.67c2.8,10.32,7.46,19.08,15,26.16,4.18,2.55,7.43,6.12,11.72,7.36A93.29,93.29,0,0,0,80.76,443c6.45,2.6,10.92,2.79,15.38,3.19,3.72.33,10.87.72,14.53,1,13.09,1,22-1.05,32.32-2.18a69.19,69.19,0,0,0,8.88-2.88c13.6-5.47,25.54-11.95,34.94-20.43a283.17,283.17,0,0,0,22.33-23.46,71,71,0,0,0,4.51-6.81,272.61,272.61,0,0,0,15.42-26.18c1.59-3,7-15.47,8.87-19.38,12.51-26.59,11.62-24.6,18.51-50.24.38-1.41-31.77-15-46.52-12.86A109.52,109.52,0,0,1,208.21,300Z" style="fill:#1288ca"/><path d="M16.73,368.67c8.26-10.09,16.74-2.08,21.71-1.57.54,0,2.37,1.35,4.75,3.42,1.46,1.27,4.15.36,5.86,2,1,.93,1,4.33,2,5.29s4.88,1.21,5.79,2.11c3.24,3.24,3.47,7.84,3.87,8.49,2.64,8.41,8.41,12.46,12.87,18.33a42.81,42.81,0,0,0,7.7,5,52.33,52.33,0,0,0,24.61,6.46c8.17-.07,20.19-.54,32.1-6.05,12.62-5.84,24.74-12.33,25.29-9s-23.07,20.26-50.2,23c-14.48,1.48-35.58-1.51-43-15-15.22-27.63-20.15-35.23-32.19-42.44C24.93,361,16.73,368.67,16.73,368.67Z" style="fill:#2692cb"/><path d="M230.1,348.78c-1.48,2.62-14.72,27.88-19.94,35.13-1.78,2.3-3.53,5.3-5.41,7.44-21.86,24.95-35.25,32.06-53.67,39.95-3.48,1.48-6.71,3.46-10.19,4.88a80,80,0,0,1-8.15,2.83c-6.16,1.21-12.45,2.77-18.88,2.81-3.22,0-6.45-.1-9.67-.37-8.74-1.19-16.92-1.59-24.87-4.7-2.65-1-5.16-1.24-7.72-2.5-1.73-1-3.29-1.84-4.72-2.56h0a41.66,41.66,0,0,1-12.34-10.85c-5.86-7.54-12.88-26.3-16.17-34.42-1.37-3.39-5.86-10.6-8.89-12.49a8.27,8.27,0,0,0-7.12-1.05c-2.2.71-1.52,1.67-1.52,1.67,2.15-2,10.58.76,16.9,13.83a145.71,145.71,0,0,1,6.85,16.72c2.8,10.32,7.46,19.08,15,26.16,8.14,6.06,15,10.4,22.32,12.22,9.13,2.25,14.89,2.79,25.24,3.54q4.48.51,9,.7c9,.36,22.75-.73,32.33-3.78a103.81,103.81,0,0,0,34.19-18.72c2.2-1.86,4.23-3.61,6.34-5.56a99.08,99.08,0,0,0,20.36-22.29c1.43-2.22,2.83-4.46,4.19-6.7,6.2-9.36,11.44-17.38,16.87-26.9,1.36-2.38,14.84-35.88,16.13-38.3C254.8,308.9,240.48,330.36,230.1,348.78Z" style="fill:#010101;opacity:0.1"/><path d="M200.39,337.39c4.53-16.89,1.06-23.85,22.91-36.89,11.06-6.6,5.27,8.36-13.08,42-4.79,8.79-14.34,24-16.62,22.73C185.18,360.39,199.55,340.55,200.39,337.39Z" style="fill:#2692cb"/><path d="M185.92,260.63c-11.41.83-16.13,2-29.56-2.51-8.51-4.29-14.77-8.12-19.38-18.26-3.44-7.58-3.81-15.63-6-8.83-3.1,9.58,6,23,11.77,27.29,11.58,8.65,21.25,12.85,35.87,11.79C198.44,268.67,194.3,260,185.92,260.63Z" style="fill:#2692cb"/><path d="M304.22,235.8a36.87,36.87,0,1,0-47.3-22,36.87,36.87,0,0,0,47.3,22" style="fill:#0c222d;fill-rule:evenodd;opacity:0.05"/><path d="M303.57,234a35,35,0,1,0-44.88-20.84A35,35,0,0,0,303.57,234" style="fill:#fff;fill-rule:evenodd"/><path d="M266.32,224.86c-13.81-39.21,20.69-64.74,50.8-47.63C302.07,162,281.56,162.81,268,175.4a35,35,0,0,0-1.71,49.46" style="fill:#f5f6f6;fill-rule:evenodd"/><path d="M314.08,191.52A9.72,9.72,0,1,0,308.29,204a9.72,9.72,0,0,0,5.79-12.46" style="fill:#010101"/><path d="M308.19,3.65a22.23,22.23,0,0,1,9.14,8.6,20.91,20.91,0,0,1,2.77,11.2,21.5,21.5,0,0,1-2.28,9.5,20.65,20.65,0,0,1-4.9,6.24,91.37,91.37,0,0,1-7.54,5.5A48.33,48.33,0,0,0,296,52.06q-3.15,3.44-3.36,9.32l-.22,6.48-13.1-.46.25-7.2a24.12,24.12,0,0,1,2.46-10.43A22,22,0,0,1,287.28,43a78.61,78.61,0,0,1,7.84-5.63,42.59,42.59,0,0,0,8.28-6.19,10.76,10.76,0,0,0,2.86-7.4q.21-5.89-3.56-9.27t-10.54-3.62q-11.52-.4-20.37,9.66L263,13.22Q275.57-.61,293.41,0A33.19,33.19,0,0,1,308.19,3.65ZM292.84,85.6a9.58,9.58,0,0,1,2.63,7.15,9.88,9.88,0,0,1-3.13,7,9.65,9.65,0,0,1-7.3,2.7,9.49,9.49,0,0,1-7-3.2A9.86,9.86,0,0,1,275.46,92a9.84,9.84,0,0,1,10.28-9.58A9.8,9.8,0,0,1,292.84,85.6Z"/></svg>