<svg id="flag-icon-css-aq" xmlns="http://www.w3.org/2000/svg" xmlns:xlink="http://www.w3.org/1999/xlink" width="512" height="512" viewBox="0 0 512 512">
  <defs>
    <clipPath id="clip-path">
      <rect width="512" height="512" style="fill: none"/>
    </clipPath>
  </defs>
  <title>zz</title>
  <g style="clip-path: url(#clip-path)">
    <path d="M0,0H512V512H0Z" style="fill: #0588cb"/>
  </g>
  <path d="M306.8,119.6q19.8,9,29.8,24.2a59.89,59.89,0,0,1,10,33.6q0,16.41-5.8,28A62.56,62.56,0,0,1,327,224.2,269.49,269.49,0,0,1,305.8,241q-16,10.8-23.6,19.4t-7.6,22.2v10H217V280.2q0-18.8,5.8-31.8t14-20.4a228.25,228.25,0,0,1,20.6-16.2q12-8,17.6-14a20.88,20.88,0,0,0,5.6-14.8q0-10.8-7.4-16.8t-20.6-6q-25.2,0-46.8,24.4l-40.4-31.2q36.39-42.8,93.6-42.8Q287,110.6,306.8,119.6ZM272,339.6A34.67,34.67,0,0,1,282.6,365,35.12,35.12,0,0,1,272,390.8a35.73,35.73,0,0,1-50.8,0A35.09,35.09,0,0,1,210.6,365,35.92,35.92,0,0,1,272,339.6Z" style="fill: #fff"/>
</svg>
